<svg width="100" height="100" viewBox="0 0 100 100" fill="none" xmlns="http://www.w3.org/2000/svg">
<circle cx="50" cy="50" r="50" fill="#E7E7EC"/>
<path d="M63.5479 54.9935C64.2866 54.9935 65.0181 55.139 65.7005 55.4218C66.383 55.7046 67.0031 56.119 67.5253 56.6415C68.0475 57.164 68.4617 57.7842 68.7442 58.4668C69.0266 59.1494 69.1719 59.8809 69.1715 60.6196V62.9151C69.1708 64.3481 68.7223 65.7452 67.8888 66.9109C64.0255 72.322 57.7117 75 49.16 75C40.6058 75 34.297 72.3195 30.4413 66.9084C29.6114 65.7431 29.1656 64.3481 29.166 62.9176V60.6171C29.166 59.1265 29.7578 57.6969 30.8114 56.6424C31.8649 55.5879 33.294 54.9948 34.7846 54.9935H63.5454H63.5479ZM49.16 25C50.8019 25 52.4276 25.3234 53.9445 25.9517C55.4614 26.58 56.8397 27.5009 58.0006 28.6619C59.1616 29.8229 60.0825 31.2011 60.7108 32.718C61.3391 34.2349 61.6625 35.8606 61.6625 37.5025C61.6625 39.1444 61.3391 40.7701 60.7108 42.287C60.0825 43.8039 59.1616 45.1821 58.0006 46.3431C56.8397 47.5041 55.4614 48.425 53.9445 49.0533C52.4276 49.6816 50.8019 50.005 49.16 50.005C45.8441 50.005 42.6641 48.6878 40.3194 46.3431C37.9747 43.9984 36.6575 40.8184 36.6575 37.5025C36.6575 34.1866 37.9747 31.0066 40.3194 28.6619C42.6641 26.3172 45.8441 25 49.16 25Z" fill="#C4C4C4"/>
</svg>
