<svg width="20" height="24" viewBox="0 0 20 24" fill="none" xmlns="http://www.w3.org/2000/svg">
<path d="M12.041 0.333008H7.95768C7.31201 0.333027 6.68899 0.571016 6.20773 1.00147C5.72648 1.43193 5.42076 2.02466 5.34902 2.66634H3.29102C2.59482 2.66634 1.92714 2.9429 1.43486 3.43519C0.942578 3.92747 0.666016 4.59515 0.666016 5.29134V21.0413C0.666016 21.7375 0.942578 22.4052 1.43486 22.8975C1.92714 23.3898 2.59482 23.6663 3.29102 23.6663H16.7077C17.0524 23.6663 17.3937 23.5984 17.7122 23.4665C18.0307 23.3346 18.3201 23.1412 18.5638 22.8975C18.8076 22.6537 19.0009 22.3644 19.1329 22.0459C19.2648 21.7274 19.3327 21.3861 19.3327 21.0413V5.29134C19.3327 4.94662 19.2648 4.60528 19.1329 4.2868C19.0009 3.96832 18.8076 3.67894 18.5638 3.43519C18.3201 3.19143 18.0307 2.99808 17.7122 2.86616C17.3937 2.73424 17.0524 2.66634 16.7077 2.66634H14.6497C14.5779 2.02466 14.2722 1.43193 13.791 1.00147C13.3097 0.571016 12.6867 0.333027 12.041 0.333008ZM7.95768 2.08301H12.041C12.2731 2.08301 12.4956 2.17519 12.6597 2.33929C12.8238 2.50338 12.916 2.72594 12.916 2.95801C12.916 3.19007 12.8238 3.41263 12.6597 3.57673C12.4956 3.74082 12.2731 3.83301 12.041 3.83301H7.95768C7.72562 3.83301 7.50306 3.74082 7.33896 3.57673C7.17487 3.41263 7.08268 3.19007 7.08268 2.95801C7.08268 2.72594 7.17487 2.50338 7.33896 2.33929C7.50306 2.17519 7.72562 2.08301 7.95768 2.08301ZM16.1594 8.17301C16.3232 8.33707 16.4152 8.55947 16.4152 8.79134C16.4152 9.02322 16.3232 9.24561 16.1594 9.40967L13.826 11.743C13.662 11.9069 13.4396 11.9989 13.2077 11.9989C12.9758 11.9989 12.7534 11.9069 12.5893 11.743L11.4227 10.5763C11.3367 10.4962 11.2678 10.3996 11.2199 10.2923C11.1721 10.185 11.1464 10.0691 11.1443 9.95162C11.1423 9.83413 11.1639 9.71743 11.2079 9.60848C11.2519 9.49952 11.3174 9.40055 11.4005 9.31746C11.4836 9.23438 11.5825 9.16887 11.6915 9.12486C11.8004 9.08086 11.9171 9.05924 12.0346 9.06132C12.1521 9.06339 12.268 9.08911 12.3753 9.13693C12.4826 9.18475 12.5792 9.25371 12.6593 9.33967L13.2077 9.88801L14.9227 8.17301C15.0867 8.00915 15.3091 7.91711 15.541 7.91711C15.7729 7.91711 15.9953 8.00915 16.1594 8.17301ZM16.1594 15.8263L13.826 18.1597C13.662 18.3235 13.4396 18.4156 13.2077 18.4156C12.9758 18.4156 12.7534 18.3235 12.5893 18.1597L11.4227 16.993C11.3367 16.9129 11.2678 16.8163 11.2199 16.709C11.1721 16.6016 11.1464 16.4858 11.1443 16.3683C11.1423 16.2508 11.1639 16.1341 11.2079 16.0251C11.2519 15.9162 11.3174 15.8172 11.4005 15.7341C11.4836 15.651 11.5825 15.5855 11.6915 15.5415C11.8004 15.4975 11.9171 15.4759 12.0346 15.478C12.1521 15.4801 12.268 15.5058 12.3753 15.5536C12.4826 15.6014 12.5792 15.6704 12.6593 15.7563L13.2077 16.3047L14.9227 14.5897C15.0028 14.5037 15.0994 14.4348 15.2067 14.3869C15.3141 14.3391 15.4299 14.3134 15.5474 14.3113C15.6649 14.3092 15.7816 14.3309 15.8905 14.3749C15.9995 14.4189 16.0985 14.4844 16.1816 14.5675C16.2646 14.6506 16.3302 14.7495 16.3742 14.8585C16.4182 14.9674 16.4398 15.0841 16.4377 15.2016C16.4356 15.3191 16.4099 15.435 16.3621 15.5423C16.3143 15.6496 16.2453 15.7462 16.1594 15.8263ZM4.16602 9.95801C4.16602 9.72594 4.2582 9.50338 4.4223 9.33929C4.58639 9.17519 4.80895 9.08301 5.04102 9.08301H9.12435C9.35641 9.08301 9.57897 9.17519 9.74307 9.33929C9.90716 9.50338 9.99935 9.72594 9.99935 9.95801C9.99935 10.1901 9.90716 10.4126 9.74307 10.5767C9.57897 10.7408 9.35641 10.833 9.12435 10.833H5.04102C4.80895 10.833 4.58639 10.7408 4.4223 10.5767C4.2582 10.4126 4.16602 10.1901 4.16602 9.95801ZM5.04102 15.4997H9.12435C9.35641 15.4997 9.57897 15.5919 9.74307 15.756C9.90716 15.9201 9.99935 16.1426 9.99935 16.3747C9.99935 16.6067 9.90716 16.8293 9.74307 16.9934C9.57897 17.1575 9.35641 17.2497 9.12435 17.2497H5.04102C4.80895 17.2497 4.58639 17.1575 4.4223 16.9934C4.2582 16.8293 4.16602 16.6067 4.16602 16.3747C4.16602 16.1426 4.2582 15.9201 4.4223 15.756C4.58639 15.5919 4.80895 15.4997 5.04102 15.4997Z" fill="#3050C1"/>
</svg>
