<svg width="24" height="24" viewBox="0 0 24 24" fill="none" xmlns="http://www.w3.org/2000/svg">
<path d="M11.9992 1.2002C17.9652 1.2002 22.7992 6.03552 22.7992 12.0002L22.7958 12.2747C22.6502 18.1138 17.8721 22.8002 11.9992 22.8002L11.7247 22.7968C5.88564 22.6511 1.19922 17.8731 1.19922 12.0002L1.20264 11.7257C1.34827 5.88661 6.12631 1.2002 11.9992 1.2002ZM17.6618 8.09887C17.3189 7.76907 16.7621 7.7667 16.4201 8.09545L10.1992 14.0771L7.58392 11.5624C7.23546 11.2274 6.68046 11.2298 6.3366 11.5604L6.32184 11.5746C5.97885 11.9044 5.97936 12.4426 6.32492 12.7749L9.57351 15.8986C9.91772 16.2295 10.4778 16.2324 10.8214 15.902L17.6771 9.30995C18.0204 8.97983 18.0205 8.4437 17.6766 8.11306L17.6618 8.09887Z" fill="#C4C4C4"/>
</svg>
