<svg width="20" height="20" viewBox="0 0 20 20" fill="none" xmlns="http://www.w3.org/2000/svg">
<path d="M16.875 4.375C16.875 3.87772 16.6775 3.40081 16.3258 3.04917C15.9742 2.69754 15.4973 2.5 15 2.5C14.5027 2.5 14.0258 2.69754 13.6742 3.04917C13.3225 3.40081 13.125 3.87772 13.125 4.375V15.625C13.125 16.1223 13.3225 16.5992 13.6742 16.9508C14.0258 17.3025 14.5027 17.5 15 17.5C15.4973 17.5 15.9742 17.3025 16.3258 16.9508C16.6775 16.5992 16.875 16.1223 16.875 15.625V4.375ZM11.875 8.125C11.875 7.62772 11.6775 7.15081 11.3258 6.79917C10.9742 6.44754 10.4973 6.25 10 6.25C9.50272 6.25 9.02581 6.44754 8.67417 6.79917C8.32254 7.15081 8.125 7.62772 8.125 8.125V15.625C8.125 16.1223 8.32254 16.5992 8.67417 16.9508C9.02581 17.3025 9.50272 17.5 10 17.5C10.4973 17.5 10.9742 17.3025 11.3258 16.9508C11.6775 16.5992 11.875 16.1223 11.875 15.625V8.125ZM5 10C5.49728 10 5.97419 10.1975 6.32583 10.5492C6.67746 10.9008 6.875 11.3777 6.875 11.875V15.625C6.875 16.1223 6.67746 16.5992 6.32583 16.9508C5.97419 17.3025 5.49728 17.5 5 17.5C4.50272 17.5 4.02581 17.3025 3.67417 16.9508C3.32254 16.5992 3.125 16.1223 3.125 15.625V11.875C3.125 11.3777 3.32254 10.9008 3.67417 10.5492C4.02581 10.1975 4.50272 10 5 10Z" fill="#D73A49"/>
</svg>
