<svg width="22" height="23" viewBox="0 0 22 23" fill="none" xmlns="http://www.w3.org/2000/svg">
<path d="M12.3662 1.12501C11.8916 0.721535 11.289 0.5 10.666 0.5C10.0431 0.5 9.44044 0.721535 8.96582 1.12501L1.09082 7.81835C0.800961 8.06476 0.568125 8.37124 0.40844 8.71655C0.248754 9.06186 0.166037 9.43775 0.166016 9.8182V20.2859C0.166016 20.8214 0.378755 21.335 0.757435 21.7137C1.13611 22.0924 1.64971 22.3051 2.18525 22.3051H6.22371C6.75924 22.3051 7.27284 22.0924 7.65152 21.7137C8.0302 21.335 8.24294 20.8214 8.24294 20.2859V14.632C8.24294 14.5249 8.28549 14.4222 8.36122 14.3465C8.43696 14.2707 8.53968 14.2282 8.64678 14.2282H12.2814C12.3885 14.2282 12.4912 14.2707 12.567 14.3465C12.6427 14.4222 12.6852 14.5249 12.6852 14.632V20.2859C12.6852 20.8214 12.898 21.335 13.2767 21.7137C13.6553 22.0924 14.1689 22.3051 14.7045 22.3051H19.1468C19.6823 22.3051 20.1959 22.0924 20.5746 21.7137C20.9533 21.335 21.166 20.8214 21.166 20.2859V9.8182C21.166 9.43775 21.0833 9.06186 20.9236 8.71655C20.7639 8.37124 20.5311 8.06476 20.2412 7.81835L12.3662 1.12501Z" fill="#3050C1"/>
</svg>
