<svg width="22" height="23" viewBox="0 0 22 23" fill="none" xmlns="http://www.w3.org/2000/svg">
<path d="M11.3202 2.35512C11.1377 2.19978 10.9057 2.11447 10.666 2.11447C10.4263 2.11447 10.1944 2.19978 10.0118 2.35512L2.13678 9.04928C2.02528 9.14414 1.93575 9.26212 1.87438 9.39503C1.81302 9.52794 1.78129 9.67261 1.7814 9.81901V20.2859C1.7814 20.393 1.82395 20.4957 1.89968 20.5715C1.97542 20.6472 2.07814 20.6897 2.18525 20.6897H6.22371C6.33081 20.6897 6.43353 20.6472 6.50927 20.5715C6.58501 20.4957 6.62755 20.393 6.62755 20.2859V14.632C6.62755 14.0965 6.84029 13.5829 7.21897 13.2042C7.59765 12.8256 8.11125 12.6128 8.64678 12.6128H12.2814C12.5466 12.6128 12.8091 12.665 13.0541 12.7665C13.2991 12.868 13.5217 13.0167 13.7092 13.2042C13.8967 13.3917 14.0454 13.6143 14.1469 13.8593C14.2484 14.1043 14.3006 14.3669 14.3006 14.632V20.2859C14.3006 20.393 14.3432 20.4957 14.4189 20.5715C14.4946 20.6472 14.5974 20.6897 14.7045 20.6897H19.1468C19.2539 20.6897 19.3566 20.6472 19.4323 20.5715C19.5081 20.4957 19.5506 20.393 19.5506 20.2859V9.8182C19.5506 9.67194 19.5188 9.52743 19.4575 9.39466C19.3961 9.2619 19.3066 9.14405 19.1952 9.04928L11.3202 2.35593V2.35512ZM8.96582 1.12501C9.44044 0.721535 10.0431 0.5 10.666 0.5C11.289 0.5 11.8916 0.721535 12.3662 1.12501L20.2412 7.81835C20.5311 8.06476 20.7639 8.37124 20.9236 8.71655C21.0833 9.06186 21.166 9.43775 21.166 9.8182V20.2859C21.166 20.8214 20.9533 21.335 20.5746 21.7137C20.1959 22.0924 19.6823 22.3051 19.1468 22.3051H14.7045C14.1689 22.3051 13.6553 22.0924 13.2767 21.7137C12.898 21.335 12.6852 20.8214 12.6852 20.2859V14.632C12.6852 14.5249 12.6427 14.4222 12.567 14.3465C12.4912 14.2707 12.3885 14.2282 12.2814 14.2282H8.64678C8.53968 14.2282 8.43696 14.2707 8.36122 14.3465C8.28549 14.4222 8.24294 14.5249 8.24294 14.632V20.2859C8.24294 20.8214 8.0302 21.335 7.65152 21.7137C7.27284 22.0924 6.75924 22.3051 6.22371 22.3051H2.18525C1.64971 22.3051 1.13611 22.0924 0.757435 21.7137C0.378755 21.335 0.166016 20.8214 0.166016 20.2859V9.8182C0.166037 9.43775 0.248754 9.06186 0.40844 8.71655C0.568125 8.37124 0.800961 8.06476 1.09082 7.81835L8.96582 1.12501Z" fill="#98989A"/>
</svg>
