<svg width="60" height="44" viewBox="0 0 60 44" fill="none" xmlns="http://www.w3.org/2000/svg">
<path d="M56.2927 23.3332C54.3644 21.0625 51.6303 19.6285 48.666 19.3332C48.666 14.1332 46.8527 9.73317 43.226 6.1065C39.5993 2.47984 35.1993 0.666504 29.9993 0.666504C25.786 0.666504 21.9993 1.91984 18.666 4.47984C15.3327 7.03984 13.1193 10.3198 11.9993 14.3998C8.66602 15.1465 5.89268 16.8798 3.78602 19.5998C1.67935 22.3198 0.666016 25.4132 0.666016 28.8798C0.666016 32.9065 2.10602 36.3465 4.95935 39.1465C7.83935 41.9998 11.3327 43.3332 15.3327 43.3332H47.3327C50.666 43.3332 53.4927 42.1598 55.8394 39.8398C58.1594 37.4932 59.3327 34.6665 59.3327 31.3332C59.3327 28.2665 58.3194 25.5998 56.2927 23.3332ZM25.9993 33.1465L22.2393 36.9332L9.99935 24.6665L22.2393 12.3998L25.9993 16.1865L17.5194 24.6665L25.9993 33.1465ZM37.7593 36.9332L33.9994 33.1465L42.4794 24.6665L33.9994 16.1865L37.7593 12.3998L49.9994 24.6665L37.7593 36.9332Z" fill="#DBDBDB"/>
</svg>
