<svg width="24" height="24" viewBox="0 0 24 24" fill="none" xmlns="http://www.w3.org/2000/svg">
<path d="M12.3327 23.6663C5.88918 23.6663 0.666016 18.4432 0.666016 11.9997C0.666016 5.55617 5.88918 0.333008 12.3327 0.333008C18.7762 0.333008 23.9993 5.55617 23.9993 11.9997C23.9993 18.4432 18.7762 23.6663 12.3327 23.6663ZM18.166 13.7497C18.166 13.2855 17.9816 12.8404 17.6535 12.5122C17.3253 12.184 16.8801 11.9997 16.416 11.9997H8.24935C7.78522 11.9997 7.3401 12.184 7.01191 12.5122C6.68372 12.8404 6.49935 13.2855 6.49935 13.7497V14.333C6.49935 16.6325 8.66935 18.9997 12.3327 18.9997C15.996 18.9997 18.166 16.6325 18.166 14.333V13.7497ZM15.541 7.62467C15.541 6.77377 15.203 5.95772 14.6013 5.35604C13.9996 4.75436 13.1836 4.41634 12.3327 4.41634C11.4818 4.41634 10.6657 4.75436 10.064 5.35604C9.46237 5.95772 9.12435 6.77377 9.12435 7.62467C9.12435 8.47558 9.46237 9.29163 10.064 9.89331C10.6657 10.495 11.4818 10.833 12.3327 10.833C13.1836 10.833 13.9996 10.495 14.6013 9.89331C15.203 9.29163 15.541 8.47558 15.541 7.62467Z" fill="#3050C1"/>
</svg>
